<?xml version="1.0" encoding="UTF-8"?>
<svg version="1.1" xmlns="http://www.w3.org/2000/svg" width="2334" height="486">
<path d="M0 0 C20.96549338 16.52229872 35.89100495 38.82815487 39.8046875 65.70703125 C41.5506543 89.45217969 41.5506543 89.45217969 39.078125 98.42578125 C36.51188543 99.70890103 34.7005777 99.5487627 31.8263855 99.54603577 C30.156259 99.54809776 30.156259 99.54809776 28.45239258 99.55020142 C27.22528564 99.54660614 25.99817871 99.54301086 24.73388672 99.53930664 C22.80224167 99.53952568 22.80224167 99.53952568 20.83157349 99.53974915 C17.29460077 99.54003674 13.75766178 99.53414608 10.22069693 99.52717519 C6.52645633 99.5209354 2.83221502 99.52033735 -0.86203003 99.51914978 C-7.86016604 99.51603831 -14.85828648 99.5078274 -21.85641563 99.49780029 C-29.82245098 99.48663344 -37.78848706 99.48112726 -45.75452828 99.47610486 C-62.14365298 99.46564464 -78.532762 99.44804876 -94.921875 99.42578125 C-94.61120425 100.87283156 -94.29756502 102.31924479 -93.98266602 103.76538086 C-93.72115501 104.97368813 -93.72115501 104.97368813 -93.45436096 106.20640564 C-91.44706589 114.57271393 -85.77550514 120.54184986 -78.921875 125.42578125 C-76.31404109 126.82194472 -73.77962049 127.6879433 -70.921875 128.42578125 C-70.20128906 128.63976562 -69.48070312 128.85375 -68.73828125 129.07421875 C-58.8155537 131.72257238 -49.27732764 129.27191178 -39.921875 125.42578125 C-35.69335229 122.8753399 -31.85469662 120.37473333 -29.68608093 115.84382629 C-27.921875 113.42578125 -27.921875 113.42578125 -25.20735168 112.82450867 C-23.56520943 112.84116325 -23.56520943 112.84116325 -21.88989258 112.8581543 C-20.02830254 112.85872078 -20.02830254 112.85872078 -18.12910461 112.85929871 C-16.77486165 112.8848319 -15.42062891 112.91091188 -14.06640625 112.9375 C-12.68065159 112.946827 -11.29488044 112.95394365 -9.90910339 112.9589386 C-6.26395036 112.97801809 -2.61979556 113.0271246 1.02496338 113.0824585 C4.7450205 113.13363195 8.46523914 113.15644841 12.18554688 113.18164062 C19.48352773 113.23524454 26.78068643 113.32056621 34.078125 113.42578125 C35.34247346 118.43479443 34.20250853 121.48303117 32.078125 126.05078125 C31.75489258 126.76008789 31.43166016 127.46939453 31.09863281 128.20019531 C25.81363726 139.53545787 18.81120093 148.56830253 10.078125 157.42578125 C9.35882812 158.15796875 8.63953125 158.89015625 7.8984375 159.64453125 C-12.51829196 179.05968531 -39.41606109 184.12995499 -66.60546875 183.6640625 C-92.41705456 182.88975307 -115.03640608 171.76203764 -132.921875 153.42578125 C-152.95837958 131.90157412 -159.99631824 104.73470945 -159.05371094 75.89208984 C-158.15305852 59.04321815 -154.14455259 42.73310221 -144.921875 28.42578125 C-144.41011719 27.63042969 -143.89835938 26.83507812 -143.37109375 26.015625 C-128.51231348 3.91532423 -107.8189989 -9.99325134 -81.796875 -15.44921875 C-53.51906064 -20.87716485 -23.9417472 -16.84426203 0 0 Z M-86.00390625 44.609375 C-89.16617932 48.55722327 -92.18450427 52.64801173 -93.921875 57.42578125 C-93.591875 59.07578125 -93.261875 60.72578125 -92.921875 62.42578125 C-70.481875 62.42578125 -48.041875 62.42578125 -24.921875 62.42578125 C-23.81775435 56.90517802 -23.97091294 56.46248041 -26.859375 52.05078125 C-33.01028746 43.00102292 -40.16398184 37.44957947 -50.796875 34.67578125 C-63.98151656 33.62100992 -76.34387627 34.47812404 -86.00390625 44.609375 Z " fill="#050505" transform="translate(735.921875,211.57421875)"/>
<path d="M0 0 C1.75708534 -0.01441132 1.75708534 -0.01441132 3.54966736 -0.02911377 C4.8204866 -0.03336365 6.09130585 -0.03761353 7.40063477 -0.04199219 C9.35006737 -0.0505423 9.35006737 -0.0505423 11.33888245 -0.05926514 C14.09197379 -0.06977272 16.84503595 -0.07561716 19.59814453 -0.07910156 C23.12687734 -0.08459012 26.65522502 -0.10862625 30.18383694 -0.13707352 C33.5477626 -0.16016771 36.91163388 -0.16214716 40.27563477 -0.16699219 C41.54442978 -0.17933899 42.81322479 -0.19168579 44.12046814 -0.20440674 C45.88228172 -0.19990509 45.88228172 -0.19990509 47.6796875 -0.1953125 C48.71512192 -0.19895813 49.75055634 -0.20260376 50.81736755 -0.20635986 C53.874151 0.22783813 54.5470217 0.75864219 56.40454102 3.16113281 C56.78092194 5.254282 56.78092194 5.254282 56.78308105 7.71328735 C56.79128372 8.64679016 56.79948639 9.58029297 56.80793762 10.54208374 C56.8017894 11.56444122 56.79564117 12.58679871 56.78930664 13.64013672 C56.79467941 14.71851807 56.80005219 15.79689941 56.80558777 16.90795898 C56.81538338 19.25368073 56.81830456 21.5994388 56.81523132 23.94517899 C56.81076249 27.66141332 56.82472972 31.37716909 56.84362793 35.09335327 C56.88047498 42.99093129 56.89426948 50.88848669 56.90454102 58.78613281 C56.91643974 67.91741555 56.93824761 77.04848799 56.98454285 86.17966843 C56.99809176 89.83395279 56.99394463 93.48794289 56.98913574 97.14224243 C56.99848128 99.39675262 57.00865134 101.6512596 57.01977539 103.90576172 C57.01362717 104.91597382 57.00747894 105.92618591 57.00114441 106.9670105 C57.07534218 115.5641141 58.52802117 123.25252664 64.63110352 129.65332031 C70.99031519 135.06005094 77.78215712 135.88103981 85.96313477 135.59863281 C92.22497195 134.80257633 96.95290653 132.80174746 101.27954102 128.14160156 C107.26810026 119.92172818 107.70142646 110.96084816 107.69165039 101.07348633 C107.69848343 100.00249191 107.70531647 98.9314975 107.71235657 97.82804871 C107.72587803 95.51843402 107.73497384 93.20878996 107.74006653 90.89914131 C107.74838812 87.24742928 107.76891911 83.59596339 107.79260254 79.94432068 C107.84887152 70.88482873 107.88432231 61.82527749 107.92022705 52.76568604 C107.95140997 45.09053752 107.99052441 37.41551135 108.04048157 29.74046135 C108.06060237 26.1363299 108.0688768 22.53229184 108.07678223 18.92811584 C108.0897459 16.73307955 108.10326491 14.53804644 108.11743164 12.34301758 C108.11644974 11.3357663 108.11546783 10.32851501 108.11445618 9.29074097 C108.12272934 8.37544113 108.1310025 7.4601413 108.13952637 6.5171051 C108.14245949 5.71946023 108.14539261 4.92181536 108.14841461 4.09999943 C108.40454102 2.16113281 108.40454102 2.16113281 110.40454102 0.16113281 C112.90942383 -0.09283447 112.90942383 -0.09283447 116.10766602 -0.09765625 C117.30230469 -0.10396057 118.49694336 -0.11026489 119.7277832 -0.11676025 C121.02361328 -0.11271179 122.31944336 -0.10866333 123.65454102 -0.10449219 C124.99210684 -0.10583897 126.32967218 -0.10777961 127.66723633 -0.11029053 C130.47164568 -0.11324119 133.2759277 -0.10894612 136.08032227 -0.09960938 C139.67859024 -0.08821472 143.27655987 -0.09477453 146.87481689 -0.1067543 C149.6371486 -0.11397455 152.39940935 -0.11168425 155.16174316 -0.10649872 C157.13493035 -0.10451193 159.10812027 -0.1105956 161.08129883 -0.11676025 C162.2759375 -0.11045593 163.47057617 -0.10415161 164.70141602 -0.09765625 C166.2845459 -0.09526947 166.2845459 -0.09526947 167.8996582 -0.09283447 C170.40454102 0.16113281 170.40454102 0.16113281 172.40454102 2.16113281 C172.6562233 4.10888767 172.6562233 4.10888767 172.6585083 6.53919983 C172.66696777 7.92005013 172.66696777 7.92005013 172.67559814 9.32879639 C172.66952545 10.84887299 172.66952545 10.84887299 172.66333008 12.3996582 C172.66858704 13.99773567 172.66858704 13.99773567 172.6739502 15.62809753 C172.68279312 19.17172662 172.67690307 22.71515772 172.67016602 26.25878906 C172.67151342 28.72627297 172.67345459 31.19375662 172.67596436 33.66123962 C172.6789203 38.85076406 172.6746084 44.04021985 172.6652832 49.22973633 C172.65397767 55.83973552 172.66038818 62.44957069 172.67242813 69.05956364 C172.6797107 74.16695859 172.67732814 79.27431576 172.67217255 84.38171196 C172.67084899 86.81544451 172.67243778 89.24918063 172.67713165 91.68290901 C172.72501332 123.53501973 169.53997293 150.10715134 146.10375977 173.72753906 C144.40454102 175.16113281 144.40454102 175.16113281 142.40454102 175.16113281 C142.40454102 175.82113281 142.40454102 176.48113281 142.40454102 177.16113281 C118.93472849 194.47109421 89.68529254 198.30674997 61.30541992 194.44262695 C38.9789932 190.65160077 19.76690721 178.28546536 6.40454102 160.16113281 C5.94176758 159.53722656 5.47899414 158.91332031 5.00219727 158.27050781 C-8.28482412 138.74325594 -8.02906553 115.97772883 -7.88842773 93.34863281 C-7.88282212 90.68106341 -7.8784087 88.01351831 -7.87556458 85.34594727 C-7.86631399 79.08486006 -7.8417971 72.82393375 -7.81151611 66.56291676 C-7.77775172 59.42364758 -7.76143124 52.28436991 -7.7464298 45.14504051 C-7.71523951 30.48365641 -7.66261818 15.82239745 -7.59545898 1.16113281 C-4.95534022 -0.15892657 -2.95658262 0.01951169 0 0 Z " fill="#050505" transform="translate(389.595458984375,199.8388671875)"/>
<path d="M0 0 C11.88 0 23.76 0 36 0 C36 73.92 36 147.84 36 224 C-33.125 224 -33.125 224 -41.71875 216.5 C-49.86547704 207.87405372 -50.23425759 196.24436431 -50 185 C-50.66 185 -51.32 185 -52 185 C-52.13535156 185.59425781 -52.27070312 186.18851563 -52.41015625 186.80078125 C-56.083397 200.94385791 -65.47469971 212.22491275 -77.8125 219.875 C-95.92688215 229.78532004 -116.39257621 229.9501501 -136 225 C-149.52403032 221.00426377 -161.2315563 213.76085257 -168.53515625 201.40234375 C-174.41821694 189.48185635 -175.81328514 175.76621546 -172 163 C-166.4996526 148.73638725 -156.7248754 140.24224678 -143 134 C-122.18542617 125.30555346 -99.39837565 123.03532332 -77.24609375 119.953125 C-76.55945648 119.85647049 -75.87281921 119.75981598 -75.16537476 119.66023254 C-72.41229675 119.28247309 -69.78337957 119 -67 119 C-67.08759258 116.45679484 -67.19453413 113.91683067 -67.3125 111.375 C-67.33505859 110.66214844 -67.35761719 109.94929688 -67.38085938 109.21484375 C-67.69239583 103.04075756 -69.20669597 98.83600174 -73.625 94.3125 C-82.22436554 87.85777042 -92.71225205 88.13776919 -103 89 C-110.68048351 90.19851498 -118.22454049 93.68220929 -123.4140625 99.6171875 C-125.05766831 101.99391245 -126.08602871 104.25808613 -127 107 C-132.02139942 107.13578996 -136.54235686 106.66791233 -141.46484375 105.6875 C-142.14301651 105.55432373 -142.82118927 105.42114746 -143.51991272 105.28393555 C-145.66038827 104.86213836 -147.79890903 104.4312395 -149.9375 104 C-151.39896843 103.71033083 -152.8605561 103.42126262 -154.32226562 103.1328125 C-157.88291466 102.42881251 -161.44187169 101.71664472 -165 101 C-162.3505723 85.92637618 -155.68162223 74.53191931 -143.3125 65.25 C-123.15138064 52.03776722 -98.26417873 49.69612694 -75 54 C-60.0817384 57.64242602 -46.94449436 65.4273805 -38.125 78.1875 C-30.72465444 91.10248179 -30.41994145 103.84446755 -30.4609375 118.29296875 C-30.45101123 120.2163453 -30.43906273 122.13971236 -30.42520142 124.06306458 C-30.39309654 129.08086258 -30.38246782 134.09844241 -30.37835693 139.11633301 C-30.36953798 147.1845543 -30.33416492 155.2525993 -30.2861824 163.32067299 C-30.27359815 166.13207788 -30.27435349 168.94325712 -30.27645874 171.75468445 C-30.26988248 173.46821265 -30.26287703 175.18173929 -30.25537109 176.89526367 C-30.25949509 177.67599747 -30.26361908 178.45673126 -30.26786804 179.26112366 C-30.23939238 183.04841327 -30.15397051 184.76904423 -28 188 C-24.95236066 189.01587978 -22.65281033 189.19804406 -19.45703125 189.31640625 C-18.38388672 189.35830078 -17.31074219 189.40019531 -16.20507812 189.44335938 C-15.08552734 189.48267578 -13.96597656 189.52199219 -12.8125 189.5625 C-11.68134766 189.60568359 -10.55019531 189.64886719 -9.38476562 189.69335938 C-6.58996646 189.79949099 -3.79507838 189.90154385 -1 190 C-1.00138269 188.54029958 -1.00138269 188.54029958 -1.00279331 187.05111027 C-1.02496023 163.40880654 -1.04141022 139.76650415 -1.05181217 116.12419224 C-1.05697575 104.69110813 -1.06401961 93.25803088 -1.07543945 81.82495117 C-1.08538441 71.86373974 -1.09185298 61.90253328 -1.09408849 51.94131702 C-1.09539592 46.66345826 -1.09848379 41.3856137 -1.10573006 36.10775948 C-1.11248731 31.14616116 -1.11461757 26.18458297 -1.11310768 21.2229805 C-1.11338414 19.396372 -1.11539101 17.56976287 -1.11920547 15.74315834 C-1.12413813 13.26055548 -1.12299989 10.77802985 -1.12025452 8.29542542 C-1.12462378 7.19671084 -1.12462378 7.19671084 -1.12908131 6.0758 C-1.11412121 1.11412121 -1.11412121 1.11412121 0 0 Z M-81.40625 150.953125 C-82.20800659 151.05461853 -83.00976318 151.15611206 -83.83581543 151.26068115 C-85.53046685 151.47714822 -87.22484049 151.69579987 -88.91894531 151.91650391 C-91.46298843 152.24521776 -94.00863362 152.55839447 -96.5546875 152.87109375 C-116.86497125 154.88405495 -116.86497125 154.88405495 -133.30078125 165.55859375 C-136.36084127 170.11187894 -136.92221493 174.63349396 -136 180 C-133.62653576 185.61000638 -129.79844992 187.50584077 -124.53515625 190.01953125 C-113.100467 194.4418841 -100.10433621 192.38471956 -89 188 C-80.12495543 183.4308005 -72.41381207 176.538088 -69 167 C-67.43351327 161.30693965 -66.74386207 155.8911723 -67 150 C-71.86782988 149.88281862 -76.58678812 150.33615687 -81.40625 150.953125 Z " fill="#2D6837" transform="translate(1800,167)"/>
<path d="M0 0 C3.76718897 0.03158654 7.53396031 0.04102287 11.30126953 0.046875 C13.69059762 0.05602959 16.07992142 0.06640038 18.46923828 0.078125 C20.16268875 0.08449982 20.16268875 0.08449982 21.89035034 0.09100342 C22.92298004 0.10061096 23.95560974 0.11021851 25.01953125 0.12011719 C26.38729202 0.13035919 26.38729202 0.13035919 27.78268433 0.14080811 C29.85205078 0.28125 29.85205078 0.28125 30.85205078 1.28125 C30.95587667 2.89705008 30.99057321 4.51735624 30.99731445 6.13647461 C31.00369431 7.1710228 31.01007416 8.20557098 31.01664734 9.27146912 C31.01776016 10.39747025 31.01887299 11.52347137 31.02001953 12.68359375 C31.02501213 14.40564781 31.02501213 14.40564781 31.03010559 16.16249084 C31.0351798 18.59619749 31.03751377 21.02991112 31.03735352 23.46362305 C31.03953933 27.19917192 31.05768824 30.93442535 31.07666016 34.66992188 C31.07959403 37.02864482 31.08157887 39.38736917 31.08251953 41.74609375 C31.08970505 42.87007065 31.09689056 43.99404755 31.10429382 45.15208435 C31.10121719 46.1897847 31.09814056 47.22748505 31.0949707 48.29663086 C31.09639572 49.21294785 31.09782074 50.12926483 31.09928894 51.073349 C30.85205078 53.28125 30.85205078 53.28125 28.85205078 55.28125 C25.7668457 55.55249023 25.7668457 55.55249023 21.83251953 55.58984375 C20.40347916 55.615013 18.97444279 55.64041089 17.54541016 55.66601562 C15.29403812 55.69470646 13.04273609 55.71872337 10.79125977 55.73754883 C8.61713618 55.7592829 6.44385075 55.7987364 4.27001953 55.83984375 C2.31745239 55.86002563 2.31745239 55.86002563 0.32543945 55.88061523 C-3.37884958 56.30788299 -5.24851664 56.97067767 -8.14794922 59.28125 C-10.74218476 62.75084109 -10.58327064 66.850418 -10.77294922 71.03125 C-10.81162109 71.72863281 -10.85029297 72.42601562 -10.89013672 73.14453125 C-10.98393545 74.85635818 -11.06701096 76.56876682 -11.14794922 78.28125 C-9.29278687 78.27339478 -9.29278687 78.27339478 -7.40014648 78.26538086 C-2.82870197 78.24733439 1.74273937 78.23581929 6.31420898 78.22631836 C8.2959852 78.22127733 10.27775767 78.21444462 12.25952148 78.20581055 C15.10157187 78.19373485 17.94357325 78.18801955 20.78564453 78.18359375 C21.6773082 78.17843246 22.56897186 78.17327118 23.48765564 78.16795349 C25.60945679 78.16775823 27.73115858 78.2191497 29.85205078 78.28125 C31.46614328 79.8953425 30.97939396 81.64601408 30.98144531 83.87695312 C30.98459747 84.85466675 30.98774963 85.83238037 30.99099731 86.83972168 C30.98796097 88.43499695 30.98796097 88.43499695 30.98486328 90.0625 C30.98582001 91.14631958 30.98677673 92.23013916 30.98776245 93.34680176 C30.98844443 95.6434739 30.98658889 97.94014795 30.98242188 100.23681641 C30.9770739 103.76599428 30.98236628 107.29504487 30.98876953 110.82421875 C30.98810875 113.04947945 30.9868276 115.27474007 30.98486328 117.5 C30.98688751 118.56351685 30.98891174 119.62703369 30.99099731 120.72277832 C30.98626907 122.18934875 30.98626907 122.18934875 30.98144531 123.68554688 C30.98064972 124.55078979 30.97985413 125.41603271 30.97903442 126.30749512 C30.85205078 128.28125 30.85205078 128.28125 29.85205078 129.28125 C27.0539415 129.42908039 24.27737442 129.51630316 21.47705078 129.5625 C20.6373877 129.58090942 19.79772461 129.59931885 18.93261719 129.61828613 C15.32451558 129.6972406 11.71621923 129.76479697 8.10791016 129.83349609 C5.48085967 129.88510902 2.85397579 129.94240526 0.22705078 130 C-1.00730713 130.02036316 -1.00730713 130.02036316 -2.26660156 130.0411377 C-6.01427535 129.7688866 -6.01427535 129.7688866 -9.14794922 131.28125 C-9.25365174 132.78416192 -9.29033795 134.29198701 -9.29943848 135.79858398 C-9.30778214 136.77455536 -9.31612579 137.75052673 -9.32472229 138.756073 C-9.32890671 139.83559235 -9.33309113 140.91511169 -9.33740234 142.02734375 C-9.34569565 143.15729767 -9.35398895 144.28725159 -9.36253357 145.45144653 C-9.37997887 147.91399712 -9.39513327 150.37656472 -9.40830994 152.83914185 C-9.4292561 156.72931363 -9.45628463 160.61939971 -9.48498535 164.50952148 C-9.54480511 172.766732 -9.59696146 181.02398089 -9.64794922 189.28125 C-9.70700399 198.84494062 -9.76926961 208.4085845 -9.83982849 217.97219849 C-9.8665157 221.81730815 -9.88726244 225.6624218 -9.90783691 229.50756836 C-9.92443197 231.85009974 -9.9413031 234.19262918 -9.95849609 236.53515625 C-9.96268051 237.6146756 -9.96686493 238.69419495 -9.97117615 239.806427 C-9.97951981 240.78239838 -9.98786346 241.75836975 -9.99645996 242.76391602 C-10.00419056 244.04372093 -10.00419056 244.04372093 -10.01207733 245.34938049 C-10.14794922 247.28125 -10.14794922 247.28125 -11.14794922 248.28125 C-13.04493771 248.38040795 -14.94563709 248.40924314 -16.84521484 248.41064453 C-18.06317749 248.41379669 -19.28114014 248.41694885 -20.53601074 248.42019653 C-21.87540727 248.41840675 -23.21480346 248.4163558 -24.55419922 248.4140625 C-25.91800962 248.4147356 -27.2818199 248.41570567 -28.64562988 248.41696167 C-31.50725443 248.41843838 -34.36884782 248.41628497 -37.23046875 248.41162109 C-40.90613536 248.40592381 -44.58172896 248.40920296 -48.25739288 248.41519356 C-51.07457025 248.41879991 -53.8917302 248.41766025 -56.70890808 248.41506577 C-58.06454985 248.4143967 -59.42019318 248.41522421 -60.77583313 248.41754532 C-62.66744966 248.42007301 -64.55907171 248.41554014 -66.45068359 248.41064453 C-68.06831604 248.40945114 -68.06831604 248.40945114 -69.71862793 248.40823364 C-72.14794922 248.28125 -72.14794922 248.28125 -73.14794922 247.28125 C-73.25586206 245.76349154 -73.29477634 244.24077031 -73.3061676 242.71922302 C-73.31595642 241.73339233 -73.32574524 240.74756165 -73.33583069 239.7318573 C-73.34158615 238.64141617 -73.34734161 237.55097504 -73.35327148 236.42749023 C-73.36812088 234.71551956 -73.36812088 234.71551956 -73.38327026 232.96896362 C-73.4149955 229.17594516 -73.43968611 225.38291414 -73.46435547 221.58984375 C-73.48491549 218.96810063 -73.50591169 216.3463609 -73.52732849 213.72462463 C-73.577305 207.51626452 -73.62222536 201.30787841 -73.66535085 195.09946734 C-73.71468095 188.03304224 -73.76961471 180.96666423 -73.82503045 173.90028465 C-73.93892657 159.360651 -74.04574891 144.82097049 -74.14794922 130.28125 C-74.84662109 130.22066406 -75.54529297 130.16007813 -76.26513672 130.09765625 C-77.17521484 130.01386719 -78.08529297 129.93007813 -79.02294922 129.84375 C-80.38033203 129.72193359 -80.38033203 129.72193359 -81.76513672 129.59765625 C-84.14794922 129.28125 -84.14794922 129.28125 -86.14794922 128.28125 C-86.14794922 112.11125 -86.14794922 95.94125 -86.14794922 79.28125 C-83.50336543 77.95895811 -81.47033621 78.18447806 -78.52294922 78.21875 C-77.01861328 78.23228516 -77.01861328 78.23228516 -75.48388672 78.24609375 C-74.71302734 78.25769531 -73.94216797 78.26929688 -73.14794922 78.28125 C-73.16365967 77.24738159 -73.16365967 77.24738159 -73.1796875 76.19262695 C-73.76242415 32.03372903 -73.76242415 32.03372903 -58.14794922 15.28125 C-54.66772491 12.27283452 -51.04736072 9.71549801 -47.14794922 7.28125 C-46.18115234 6.65089844 -46.18115234 6.65089844 -45.19482422 6.0078125 C-31.92237713 -1.6671243 -14.68177478 -0.12457028 0 0 Z " fill="#040404" transform="translate(157.14794921875,140.71875)"/>
<path d="M0 0 C11.88 0 23.76 0 36 0 C36 31.35 36 62.7 36 95 C38.90961476 93.54519262 39.05318608 91.63693252 40.1875 88.625 C46.04281097 74.27608387 54.60316196 63.79191638 68.86328125 57.21875 C84.22251968 51.25102598 100.90069051 51.23565216 116.16015625 57.6640625 C124.63970089 61.53202947 131.51800018 66.22830186 138 73 C138.62003906 73.58910156 139.24007813 74.17820312 139.87890625 74.78515625 C155.2039578 90.38448165 159.40457716 114.76218432 159.3125 135.625 C159.31067719 136.28163635 159.30885437 136.93827271 159.30697632 137.61480713 C159.25697426 148.34586707 158.62185732 158.58482663 156 169 C155.83371094 169.67095703 155.66742187 170.34191406 155.49609375 171.03320312 C151.72227048 185.66725112 145.44976175 199.91086468 135 211 C134.33613281 211.70511719 133.67226562 212.41023437 132.98828125 213.13671875 C120.95357732 224.81549798 106.4818327 228.46112569 90.20239258 228.43164062 C74.16639695 228.12992399 62.41456556 221.84080173 51.25 210.375 C44.28674907 202.26162503 39.64017785 192.57003502 38 182 C37.34 182 36.68 182 36 182 C36 195.53 36 209.06 36 223 C24.12 223 12.24 223 0 223 C0 149.41 0 75.82 0 0 Z M56.8125 102.6875 C45.63374581 118.40476746 44.59870379 138.3984429 47.58154297 156.82373047 C50.15613985 170.21343675 56.77261253 182.0500353 68 190 C75.87090057 194.41617817 84.35472285 195.13259926 93 192.875 C102.47852091 189.75420062 109.68096048 182.66418247 114.6640625 174.16015625 C123.98176615 155.59359897 124.28328487 134.31431921 117.93359375 114.70703125 C113.81913152 103.99313456 107.36469507 95.13535486 96.9140625 89.96875 C80.98289874 83.75732153 67.05604504 90.15023495 56.8125 102.6875 Z " fill="#2B6735" transform="translate(1462,167)"/>
<path d="M0 0 C11.88 0 23.76 0 36 0 C36 31.02 36 62.04 36 94 C64.05 94 92.1 94 121 94 C121 62.98 121 31.96 121 0 C132.88 0 144.76 0 157 0 C157 73.59 157 147.18 157 223 C145.12 223 133.24 223 121 223 C121 191.32 121 159.64 121 127 C92.95 127 64.9 127 36 127 C36 158.68 36 190.36 36 223 C24.12 223 12.24 223 0 223 C0 149.41 0 75.82 0 0 Z " fill="#2B6735" transform="translate(1012,167)"/>
<path d="M0 0 C1.69196504 3.38393008 1.11986549 7.22477791 1.09765625 10.9453125 C1.0962413 11.8303244 1.09482635 12.7153363 1.09336853 13.62716675 C1.0877614 16.45981191 1.07520771 19.29237864 1.0625 22.125 C1.05748592 24.04296761 1.05292285 25.96093646 1.04882812 27.87890625 C1.03778966 32.58596782 1.02052025 37.2929706 1 42 C2.26183105 41.98952637 3.52366211 41.97905273 4.82373047 41.96826172 C9.49394914 41.93213101 14.16415539 41.90912484 18.83447266 41.89013672 C20.85793127 41.88006329 22.88137528 41.86640405 24.90478516 41.84912109 C27.80895589 41.82493153 30.71293461 41.81353051 33.6171875 41.8046875 C34.52556366 41.79436493 35.43393982 41.78404236 36.36984253 41.77340698 C37.21056305 41.77325592 38.05128357 41.77310486 38.91748047 41.77294922 C40.03000687 41.76628738 40.03000687 41.76628738 41.16500854 41.75949097 C43 42 43 42 45 44 C45.24723816 46.05604553 45.24723816 46.05604553 45.24291992 48.61743164 C45.24599655 49.57504898 45.24907318 50.53266632 45.25224304 51.51930237 C45.24146477 53.07402504 45.24146477 53.07402504 45.23046875 54.66015625 C45.23001053 55.72036484 45.22955231 56.78057343 45.2290802 57.87290955 C45.22605571 60.11653766 45.21816356 62.36016362 45.20581055 64.60375977 C45.18755733 68.05167009 45.18530079 71.49931204 45.18554688 74.94726562 C45.18063176 77.12239817 45.17480347 79.29752889 45.16796875 81.47265625 C45.16685593 82.51116226 45.1657431 83.54966827 45.16459656 84.61964417 C45.15821671 85.57410934 45.15183685 86.52857452 45.14526367 87.51196289 C45.14145187 88.35642471 45.13764008 89.20088654 45.13371277 90.07093811 C45 92 45 92 44 93 C42.65016252 93.12185143 41.29425299 93.17766831 39.93920898 93.20532227 C39.07839218 93.22526749 38.21757538 93.24521271 37.33067322 93.26576233 C36.39526199 93.28247482 35.45985077 93.29918732 34.49609375 93.31640625 C33.54307877 93.33718735 32.59006378 93.35796844 31.60816956 93.37937927 C28.5513559 93.44498177 25.49445344 93.50380918 22.4375 93.5625 C20.37043337 93.60567506 18.30337586 93.64928901 16.23632812 93.69335938 C11.15764405 93.80067401 6.0788703 93.90191091 1 94 C1.06140325 102.20663614 1.13864591 110.41290974 1.23571491 118.61919403 C1.28030639 122.43035233 1.31958655 126.24140651 1.34643555 130.05273438 C1.37258145 133.73581886 1.41306173 137.41850019 1.46318626 141.10133362 C1.47977917 142.50137795 1.49134039 143.90149189 1.49761391 145.30162048 C1.21455189 157.22243677 1.21455189 157.22243677 6.41596985 167.5435791 C11.09617849 171.66208696 14.73881318 172.12831557 20.78515625 172.24609375 C22.13347052 172.27901223 23.48177765 172.3122242 24.83007812 172.34570312 C26.95218316 172.39323316 29.0742552 172.43771652 31.1965332 172.47680664 C33.24720103 172.51642963 35.29730002 172.56797164 37.34765625 172.62109375 C39.18855835 172.65867798 39.18855835 172.65867798 41.06665039 172.69702148 C44 173 44 173 46 175 C46.24723816 177.3217926 46.24723816 177.3217926 46.24291992 180.26000977 C46.24599655 181.35777237 46.24907318 182.45553497 46.25224304 183.58656311 C46.24146477 185.37096046 46.24146477 185.37096046 46.23046875 187.19140625 C46.23001053 188.40698715 46.22955231 189.62256805 46.2290802 190.87498474 C46.22605496 193.44816055 46.21816063 196.02133448 46.20581055 198.59448242 C46.18756053 202.54938184 46.18530075 206.50404727 46.18554688 210.45898438 C46.18063169 212.95312704 46.17480336 215.44726811 46.16796875 217.94140625 C46.16685593 219.13302872 46.1657431 220.32465118 46.16459656 221.55238342 C46.15821671 222.64699387 46.15183685 223.74160431 46.14526367 224.86938477 C46.14145187 225.83820084 46.13764008 226.80701691 46.13371277 227.80519104 C46 230 46 230 45 231 C43.45856069 231.10896543 41.91218206 231.1490511 40.36694336 231.16113281 C39.37758286 231.17074036 38.38822235 231.1803479 37.36888123 231.19024658 C36.28679886 231.19449646 35.20471649 231.19874634 34.08984375 231.203125 C32.97501114 231.20882507 31.86017853 231.21452515 30.71156311 231.22039795 C28.33660842 231.22987521 25.96164042 231.23639268 23.58666992 231.24023438 C20.00479835 231.2498199 16.42353058 231.28076594 12.84179688 231.3125 C-9.03053568 231.41593472 -28.40221822 230.18198232 -44.95703125 214.11328125 C-60.51925794 198.01545212 -63.76802853 178.04110275 -63.671875 156.4609375 C-63.68249042 154.67443377 -63.69541624 152.88794245 -63.71051025 151.10147095 C-63.74425417 146.46925455 -63.75010571 141.8374616 -63.74859619 137.20513916 C-63.75186161 130.62192076 -63.79448881 124.03881189 -63.83233643 117.45571899 C-63.85232137 113.96231604 -63.86168304 110.46913523 -63.86248779 106.97567749 C-63.86630406 105.39963779 -63.87014772 103.82359815 -63.87402344 102.24755859 C-63.87192368 101.5235939 -63.86982391 100.79962921 -63.86766052 100.0537262 C-63.59210107 96.74394569 -63.59210107 96.74394569 -65 94 C-66.99782126 93.84174742 -69.00088834 93.74880829 -71.00390625 93.68359375 C-72.21884766 93.64169922 -73.43378906 93.59980469 -74.68554688 93.55664062 C-75.96494141 93.51732422 -77.24433594 93.47800781 -78.5625 93.4375 C-79.84576172 93.39431641 -81.12902344 93.35113281 -82.45117188 93.30664062 C-85.63399853 93.200152 -88.81690674 93.09814038 -92 93 C-92.68317699 91.2334528 -92.68317699 91.2334528 -93 89 C-91.85140705 87.14892483 -91.85140705 87.14892483 -90.06916809 85.26475525 C-89.4170315 84.5663748 -88.76489491 83.86799435 -88.0929966 83.14845085 C-87.40230772 82.43946207 -86.71161884 81.73047329 -86 81 C-85.36575293 80.34081636 -84.73150585 79.68163273 -84.07803917 79.00247383 C-82.03422234 76.90458388 -79.96724922 74.83202193 -77.89331055 72.76391602 C-76.72616768 71.59414467 -76.72616768 71.59414467 -75.53544617 70.40074158 C-72.98836308 67.8492921 -70.43768159 65.30147627 -67.88671875 62.75390625 C-66.10774873 60.97426211 -64.32892714 59.19446958 -62.55024719 57.41453552 C-58.83582106 53.69863984 -55.11965051 49.98449763 -51.40209961 46.27172852 C-47.10402306 41.97911663 -42.80959312 37.6828818 -38.51699227 33.38479477 C-34.37751131 29.24023563 -30.23523171 25.09848412 -26.09174538 20.95792961 C-24.33147519 19.19832773 -22.57195092 17.43797934 -20.81317711 15.67688179 C-18.36442914 13.22560658 -15.91252004 10.77753873 -13.4597168 8.33032227 C-12.72984558 7.59842682 -11.99997437 6.86653137 -11.24798584 6.11245728 C-10.58222031 5.44951157 -9.91645477 4.78656586 -9.23051453 4.10353088 C-8.65150233 3.52489572 -8.07249014 2.94626055 -7.47593212 2.35009098 C-4.79688866 -0.10053148 -3.84055621 0 0 0 Z " fill="#050505" transform="translate(877,158)"/>
<path d="M0 0 C0.83402344 0.65742188 1.66804688 1.31484375 2.52734375 1.9921875 C20.57900964 17.1789511 28.23364369 39.40186212 32 62 C32 69.92 32 77.84 32 86 C-5.95 86 -43.9 86 -83 86 C-81.16025583 98.87820916 -79.55605912 109.41437766 -69.15234375 117.6015625 C-57.2107093 125.36037399 -43.05342498 125.57117941 -29.30078125 123.421875 C-20.74295883 120.96080189 -13.92131458 115.38197187 -9 108 C-1.79478727 108.91189373 4.92153014 110.83287569 11.875 112.875 C13.1228125 113.22691406 14.370625 113.57882812 15.65625 113.94140625 C16.83960938 114.28816406 18.02296875 114.63492188 19.2421875 114.9921875 C20.86423096 115.46180908 20.86423096 115.46180908 22.51904297 115.94091797 C23.33775879 116.29041504 24.15647461 116.63991211 25 117 C25.33 117.99 25.66 118.98 26 120 C24.84389912 122.31220175 23.66553861 124.35361892 22.25 126.5 C21.84168945 127.12148926 21.43337891 127.74297852 21.01269531 128.38330078 C9.46497496 145.39113192 -7.91266762 155.97080712 -28 160 C-49.69555756 162.96932463 -71.30084655 159.43526648 -89 146 C-108.33078406 130.79202441 -118.44615347 109.02126741 -122 85 C-123.61085556 58.00872647 -120.47557283 33.45551695 -103 12 C-102.53207031 11.36964844 -102.06414062 10.73929688 -101.58203125 10.08984375 C-90.59279351 -4.05759135 -72.31419034 -11.59908043 -55.1875 -14.6875 C-34.99529248 -16.61643039 -16.0477407 -12.72485378 0 0 Z M-76.25 34.1875 C-81.87241686 41.1310312 -83 48.23839024 -83 57 C-57.59 57 -32.18 57 -6 57 C-6 45.70719971 -8.81813189 38.40423747 -16.62890625 30.3125 C-26.12421447 21.50014899 -36.86134599 20.5323915 -49.2109375 20.72265625 C-60.30417369 21.15764269 -68.70801509 26.32578007 -76.25 34.1875 Z " fill="#2B6735" transform="translate(1301,235)"/>
<path d="M0 0 C1.8735657 1.49686995 3.73016215 3.01543631 5.5625 4.5625 C6.21734375 5.10390625 6.8721875 5.6453125 7.546875 6.203125 C25.54279856 22.5480464 32.78935422 49.50633988 34.4140625 72.8125 C34.60853811 77.72556814 34.5625 82.64558437 34.5625 87.5625 C-3.7175 87.5625 -41.9975 87.5625 -81.4375 87.5625 C-79.59880544 100.43336192 -77.9961121 110.98748858 -67.5859375 119.1640625 C-55.85973243 126.79675598 -41.72040366 127.01914181 -28.18359375 125.1015625 C-19.90092707 122.89803615 -13.85120611 117.91399861 -9.25 110.78515625 C-6.751723 109.09989612 -4.84019137 109.5015584 -1.95654297 109.9909668 C3.43920295 111.21518091 8.71426565 112.81067167 14 114.4375 C15.19560547 114.78941406 16.39121094 115.14132812 17.62304688 115.50390625 C18.75677734 115.85066406 19.89050781 116.19742188 21.05859375 116.5546875 C22.09169678 116.86776855 23.1247998 117.18084961 24.18920898 117.50341797 C24.97239502 117.85291504 25.75558105 118.20241211 26.5625 118.5625 C27.5625 121.5625 27.5625 121.5625 26.375 124.19921875 C14.91105192 143.49521757 -0.84839079 155.02693163 -22.64453125 160.80859375 C-43.45288187 164.9445481 -64.88440603 162.27079751 -82.875 150.6875 C-84.75014144 149.3412446 -86.60603998 147.96760256 -88.4375 146.5625 C-89.22511719 145.96953125 -90.01273438 145.3765625 -90.82421875 144.765625 C-108.50501931 130.32476172 -117.1361859 107.5012017 -120.4375 85.5625 C-122.13995123 58.80231488 -118.25185727 33.16283688 -100.0625 12.375 C-98.53732718 10.75514363 -96.99608095 9.15023808 -95.4375 7.5625 C-94.76203125 6.86253906 -94.0865625 6.16257813 -93.390625 5.44140625 C-68.86321293 -18.21002681 -27.1075233 -19.79118927 0 0 Z M-73.75 34.875 C-79.51247617 42.07809521 -81.4375 49.49961892 -81.4375 58.5625 C-56.0275 58.5625 -30.6175 58.5625 -4.4375 58.5625 C-4.4375 46.86961536 -7.05686441 40.04936758 -15.2109375 31.65625 C-22.93059607 24.39706229 -31.47175059 22.00320297 -41.875 22.1875 C-42.70757324 22.19765137 -43.54014648 22.20780273 -44.39794922 22.21826172 C-56.14876893 22.51473262 -65.62508449 26.09846219 -73.75 34.875 Z " fill="#2B6735" transform="translate(2125.4375,233.4375)"/>
<path d="M0 0 C1.61430153 0.00213753 1.61430153 0.00213753 3.26121521 0.00431824 C4.47910233 0.00124161 5.69698944 -0.00183502 6.95178223 -0.00500488 C8.28596688 0.00189233 9.62014967 0.00915926 10.95433044 0.01676941 C12.31671098 0.01796114 13.67909235 0.01841439 15.04147339 0.01815796 C17.89716227 0.01972293 20.75272582 0.02801436 23.60838318 0.04142761 C27.27618307 0.05843363 30.94384533 0.06224151 34.61168003 0.06148243 C37.42457401 0.0617538 40.23743766 0.06722935 43.05032158 0.07448387 C44.40316984 0.07767464 45.75602155 0.0796389 47.10887337 0.08037758 C48.99560398 0.08253589 50.88232188 0.09206541 52.76902771 0.10197449 C53.84443314 0.10578629 54.91983856 0.10959808 56.02783203 0.11352539 C58.45042419 0.24723816 58.45042419 0.24723816 59.45042419 1.24723816 C59.55072491 4.40522156 59.58479647 7.54141639 59.57740784 10.69987488 C59.57974782 12.20692899 59.57974782 12.20692899 59.58213508 13.74442863 C59.58614979 17.13860887 59.58295362 20.53274502 59.57981873 23.92692566 C59.58117256 26.34906541 59.58295239 28.77120496 59.58512878 31.19334412 C59.58922916 37.10580699 59.58860982 43.01825825 59.58571614 48.93072081 C59.58346228 53.73379845 59.58314951 58.53687254 59.58423996 63.33995056 C59.58439319 64.02226521 59.58454643 64.70457987 59.5847043 65.40757072 C59.58502401 66.79346546 59.58534822 68.17936019 59.58567689 69.56525493 C59.58853181 82.57588731 59.58524447 95.58651266 59.57987653 108.59714389 C59.57540848 119.77282988 59.57618441 130.94850548 59.58079529 142.12419128 C59.58614084 155.08670027 59.58825712 168.04920309 59.58518302 181.01171303 C59.58486446 182.3926506 59.58455009 183.77358818 59.58423996 185.15452576 C59.58400855 186.1738289 59.58400855 186.1738289 59.58377246 187.21372402 C59.58290724 192.01377629 59.58437027 196.81382467 59.58671951 201.61387634 C59.58980893 208.06847942 59.587625 214.52306744 59.58182526 220.97766876 C59.58049694 223.3541587 59.58089297 225.73065029 59.58308792 228.10713959 C59.58579663 231.33631635 59.58242174 234.56542884 59.57740784 237.79460144 C59.58075392 239.22496892 59.58075392 239.22496892 59.5841676 240.68423271 C59.564574 247.13308836 59.564574 247.13308836 58.45042419 248.24723816 C56.55888543 248.35163992 54.66343356 248.38578707 52.76902771 248.39250183 C51.55429276 248.39888168 50.3395578 248.40526154 49.0880127 248.41183472 C47.75178568 248.41336328 46.41555813 248.4144773 45.07933044 248.41520691 C43.71791549 248.41841789 42.35650088 248.42178183 40.99508667 248.42529297 C38.13766174 248.43129032 35.28026709 248.43313226 32.4228363 248.43254089 C28.75618169 248.43243925 25.08972063 248.44609074 21.42311192 248.4633131 C18.61017968 248.47441635 15.79729448 248.47646062 12.98434258 248.47593117 C11.63231171 248.47711385 10.28027973 248.48155169 8.92827034 248.48926353 C7.03927718 248.49902889 5.15022758 248.49493011 3.26121521 248.49015808 C2.18501419 248.4915831 1.10881317 248.49300812 0 248.49447632 C-2.54957581 248.24723816 -2.54957581 248.24723816 -4.54957581 246.24723816 C-4.80027413 244.43660736 -4.80027413 244.43660736 -4.80125809 242.1960907 C-4.80647358 241.34339348 -4.81168908 240.49069626 -4.81706262 239.61215973 C-4.81260117 238.66995827 -4.80813973 237.72775681 -4.80354309 236.75700378 C-4.80666307 235.76031929 -4.80978305 234.7636348 -4.81299758 233.73674774 C-4.8210157 230.37560219 -4.81463911 227.01463526 -4.80836487 223.65348816 C-4.81107304 221.25252679 -4.81463298 218.85156625 -4.81898499 216.4506073 C-4.82718072 210.59341351 -4.8259497 204.73626661 -4.8201597 198.8790741 C-4.81564965 194.12036213 -4.81502746 189.36166454 -4.81720734 184.60295105 C-4.8175138 183.92661133 -4.81782027 183.25027162 -4.81813602 182.55343676 C-4.81877545 181.17962328 -4.81942387 179.80580981 -4.8200812 178.43199635 C-4.8257893 165.53863663 -4.81921909 152.64530532 -4.80848047 139.75195026 C-4.79954452 128.68005283 -4.80109643 117.60819733 -4.81031799 106.53630066 C-4.82101217 93.69023192 -4.82523994 80.8441881 -4.81909347 67.99811554 C-4.81845634 66.62925212 -4.8178276 65.2603887 -4.81720734 63.89152527 C-4.81689879 63.21795376 -4.81659023 62.54438226 -4.81627233 61.85039949 C-4.81454283 57.09538457 -4.81746598 52.34038541 -4.82216644 47.58537292 C-4.82834941 41.18983233 -4.82397054 34.79435248 -4.81237793 28.39881897 C-4.8097233 26.04532504 -4.81051001 23.69182446 -4.81490326 21.33833313 C-4.82032858 18.13795452 -4.81356138 14.93783445 -4.80354309 11.73747253 C-4.81023526 10.32417034 -4.81023526 10.32417034 -4.81706262 8.88231659 C-4.81184712 8.02961937 -4.80663163 7.17692215 -4.80125809 6.29838562 C-4.80093338 5.55901512 -4.80060868 4.81964462 -4.80027413 4.05786896 C-4.36390701 0.90627336 -3.01316529 0.29219348 0 0 Z " fill="#060606" transform="translate(299.54957580566406,140.7527618408203)"/>
<path d="M0 0 C2.86105488 0.00542427 5.72195731 -0.00000495 8.58300781 -0.00634766 C10.39811233 -0.00568797 12.21321675 -0.0044091 14.02832031 -0.00244141 C14.88547638 -0.00446564 15.74263245 -0.00648987 16.62576294 -0.00857544 C22.59301447 0.01537775 22.59301447 0.01537775 23.70800781 1.13037109 C23.79647615 3.65105291 23.82335306 6.14491526 23.80566406 8.66552734 C23.80465698 9.33289917 23.8036499 10.000271 23.8026123 10.68786621 C23.7973659 13.18955189 23.78340472 15.69121315 23.77050781 18.19287109 C23.74988281 23.78224609 23.72925781 29.37162109 23.70800781 35.13037109 C7.86800781 35.46037109 -7.97199219 35.79037109 -24.29199219 36.13037109 C-24.29199219 48.01037109 -24.29199219 59.89037109 -24.29199219 72.13037109 C-11.42199219 72.13037109 1.44800781 72.13037109 14.70800781 72.13037109 C14.70800781 82.69037109 14.70800781 93.25037109 14.70800781 104.13037109 C1.83800781 104.13037109 -11.03199219 104.13037109 -24.29199219 104.13037109 C-24.29199219 146.37037109 -24.29199219 188.61037109 -24.29199219 232.13037109 C-36.50199219 232.13037109 -48.71199219 232.13037109 -61.29199219 232.13037109 C-61.29199219 189.89037109 -61.29199219 147.65037109 -61.29199219 104.13037109 C-69.21199219 104.13037109 -77.13199219 104.13037109 -85.29199219 104.13037109 C-85.29199219 93.57037109 -85.29199219 83.01037109 -85.29199219 72.13037109 C-77.37199219 72.13037109 -69.45199219 72.13037109 -61.29199219 72.13037109 C-61.30359375 70.41591797 -61.31519531 68.70146484 -61.32714844 66.93505859 C-61.54759626 22.59586988 -61.54759626 22.59586988 -50.29199219 11.13037109 C-37.16680431 -1.75453875 -17.00672101 -0.03855727 0 0 Z " fill="#2E6938" transform="translate(1988.2919921875,157.86962890625)"/>
<path d="M0 0 C1.79195801 -0.00956978 1.79195801 -0.00956978 3.62011719 -0.01933289 C5.5638623 -0.02100212 5.5638623 -0.02100212 7.546875 -0.02270508 C8.88444047 -0.02591713 10.22200559 -0.02928116 11.55957031 -0.03279114 C14.36394058 -0.03878215 17.16828003 -0.04063102 19.97265625 -0.04003906 C23.5709023 -0.03993733 27.16895153 -0.05360141 30.76715088 -0.07081127 C33.52946892 -0.08191327 36.29173907 -0.08395885 39.05407715 -0.08342934 C41.0272772 -0.08518761 43.00046231 -0.09603793 44.97363281 -0.10697937 C46.16827148 -0.10390274 47.36291016 -0.10082611 48.59375 -0.09765625 C49.64916992 -0.09908127 50.70458984 -0.10050629 51.79199219 -0.10197449 C54.296875 0.14526367 54.296875 0.14526367 56.296875 2.14526367 C56.54576397 4.97825623 56.54576397 4.97825623 56.54411316 8.67431641 C56.54652757 9.35248382 56.54894199 10.03065123 56.55142957 10.72936916 C56.55708677 13.01262847 56.5483884 15.29561048 56.53979492 17.57885742 C56.54086731 19.21135535 56.54280533 20.8438529 56.54554749 22.47634888 C56.55040598 26.91840922 56.54272766 31.36036951 56.53259444 35.80241776 C56.5238301 40.44330996 56.52557107 45.08419887 56.5259552 49.72509766 C56.52501781 57.51979249 56.51632384 65.31444845 56.50268555 73.10913086 C56.48695924 82.13071007 56.4816874 91.15224669 56.4824211 100.17383862 C56.48303077 108.83962281 56.4779309 117.50539308 56.46962929 126.1711731 C56.46609187 129.86492013 56.46426538 133.55866224 56.46373558 137.25241089 C56.46273341 141.59928835 56.45664713 145.94612985 56.44656944 150.29299545 C56.44364057 151.89181167 56.44241985 153.49063204 56.44299698 155.08945084 C56.44348526 157.26507618 56.43785584 159.44059973 56.43058777 161.61621094 C56.42891192 162.8359108 56.42723608 164.05561066 56.42550945 165.31227112 C56.296875 168.14526367 56.296875 168.14526367 55.296875 170.14526367 C47.23035326 170.16839104 39.16384528 170.18618077 31.09729862 170.19707584 C27.35204463 170.20230381 23.60681324 170.20939989 19.86157227 170.22070312 C16.25005813 170.23153508 12.63856579 170.23754116 9.02703667 170.24014091 C7.64627171 170.24199461 6.265508 170.24561417 4.88475227 170.25099373 C2.95711548 170.25820814 1.02945693 170.25867176 -0.89819336 170.25878906 C-2.54699745 170.26211998 -2.54699745 170.26211998 -4.22911072 170.26551819 C-6.703125 170.14526367 -6.703125 170.14526367 -7.703125 169.14526367 C-7.80007818 166.98100193 -7.82499265 164.81351114 -7.82337952 162.64707947 C-7.82423394 161.96018825 -7.82508837 161.27329702 -7.82596868 160.56559092 C-7.82762545 158.24698912 -7.82209893 155.9284585 -7.81665039 153.60986328 C-7.81636854 151.95456443 -7.81652622 150.29926545 -7.8170929 148.64396667 C-7.81738094 144.13589435 -7.81148319 139.62784839 -7.80451894 135.11978221 C-7.79828645 130.4138863 -7.79768168 125.70798985 -7.79649353 121.00209045 C-7.7933799 112.08437733 -7.78516609 103.1666764 -7.77514404 94.24896866 C-7.76398388 84.0992007 -7.7584727 73.94943217 -7.75344861 63.79965961 C-7.74298351 42.91485415 -7.72538346 22.03005968 -7.703125 1.14526367 C-5.03457612 -0.18901077 -2.98816278 0.01079217 0 0 Z " fill="#060606" transform="translate(217.703125,218.854736328125)"/>
<path d="M0 0 C5.630625 0.0928125 5.630625 0.0928125 11.375 0.1875 C11.375 12.0675 11.375 23.9475 11.375 36.1875 C-5.0625 36.4375 -5.0625 36.4375 -10.19311523 36.48535156 C-21.33772917 36.68149948 -29.42014575 38.36017185 -37.71484375 46.16015625 C-52.07093249 61.39698663 -53.90416503 80.52793585 -54.0390625 100.4453125 C-54.05780185 102.20222861 -54.07737726 103.95913598 -54.0977478 105.71603394 C-54.14878298 110.30915137 -54.18856066 114.9022979 -54.22589111 119.49554443 C-54.27320026 125.02328906 -54.33467395 130.5508926 -54.39373779 136.07852173 C-54.48160064 144.4481233 -54.55161461 152.81770263 -54.625 161.1875 C-66.835 161.1875 -79.045 161.1875 -91.625 161.1875 C-91.64754556 140.7345124 -91.66597832 120.2815348 -91.67681217 99.82853794 C-91.6819755 90.33254617 -91.68901889 80.83656265 -91.70043945 71.34057617 C-91.71038517 63.06697155 -91.71685316 54.79337289 -91.71908849 46.51976246 C-91.72039579 42.1361641 -91.72348285 37.75258284 -91.73073006 33.36898994 C-91.73748851 29.247865 -91.73961732 25.12676427 -91.73810768 21.00563431 C-91.73838409 19.48863659 -91.74039025 17.9716381 -91.74420547 16.45464516 C-91.74914001 14.39242699 -91.7479992 12.33030174 -91.74525452 10.26808167 C-91.74617631 9.11123147 -91.7470981 7.95438128 -91.74804783 6.76247501 C-91.625 4.1875 -91.625 4.1875 -90.625 3.1875 C-88.04310554 3.08658525 -85.488535 3.04778501 -82.90625 3.0546875 C-82.13317505 3.05373077 -81.3601001 3.05277405 -80.56359863 3.05178833 C-78.92602456 3.05110659 -77.28844781 3.05296043 -75.65087891 3.05712891 C-73.13568079 3.06247729 -70.62066127 3.05718374 -68.10546875 3.05078125 C-66.51822877 3.05144203 -64.9309889 3.0527232 -63.34375 3.0546875 C-62.2078241 3.05165115 -62.2078241 3.05165115 -61.0489502 3.04855347 C-55.73995132 3.07254868 -55.73995132 3.07254868 -54.625 4.1875 C-54.53652257 6.70844076 -54.50972699 9.20180893 -54.52734375 11.72265625 C-54.5287587 12.47590683 -54.53017365 13.22915741 -54.53163147 14.00523376 C-54.53724624 16.4201956 -54.54980117 18.83506601 -54.5625 21.25 C-54.5675131 22.88346221 -54.57207634 24.51692586 -54.57617188 26.15039062 C-54.58722046 30.16279585 -54.60449494 34.17513241 -54.625 38.1875 C-53.965 38.1875 -53.305 38.1875 -52.625 38.1875 C-52.37878906 37.33800781 -52.13257813 36.48851562 -51.87890625 35.61328125 C-47.10993284 22.58402992 -37.22764442 11.56687283 -25.47265625 4.4765625 C-16.94073064 0.61437395 -9.30849056 -0.2188031 0 0 Z " fill="#2F6A38" transform="translate(1435.625,228.8125)"/>
<path d="M0 0 C11.88 0 23.76 0 36 0 C36 52.14 36 104.28 36 158 C24.12 158 12.24 158 0 158 C0 105.86 0 53.72 0 0 Z " fill="#2A6634" transform="translate(1853,232)"/>
<path d="M0 0 C8.52764935 7.84110131 12.64691604 21.97279245 13.3515625 33.28515625 C13.94121282 51.09536606 7.68277401 66.62371464 -4 80 C-4.65484375 80.77472656 -5.3096875 81.54945313 -5.984375 82.34765625 C-14.43738527 92.08095823 -24.06801511 100.57847842 -34.1015625 108.640625 C-38.15047665 111.9365066 -42.10072552 115.34294511 -46.05444336 118.75195312 C-49.67371357 121.87112699 -53.32172789 124.95053991 -57 128 C-67.92023944 107.09331833 -67.92023944 107.09331833 -69 95 C-69.06445312 94.31035156 -69.12890625 93.62070313 -69.1953125 92.91015625 C-70.04673112 75.85340331 -62.14542497 60.45030026 -51.453125 47.6953125 C-43.47348101 38.92786926 -35.12039434 30.60104977 -25.81640625 23.23828125 C-16.72427226 16.01249377 -8.02219548 8.40420479 0 0 Z " fill="#2C6836" transform="translate(2249,146)"/>
<path d="M0 0 C2.51993694 2.20061668 4.89703797 4.47791845 7.24609375 6.859375 C7.931875 7.53484375 8.61765625 8.2103125 9.32421875 8.90625 C21.12037697 21.25970703 28.0260423 37.98236567 35.2734375 53.21875 C36.07140747 54.89251709 36.07140747 54.89251709 36.88549805 56.60009766 C37.94013101 58.81615376 38.98996262 61.03450277 40.03442383 63.25537109 C42.9802829 69.5268729 42.9802829 69.5268729 46.60546875 75.4140625 C48.24609375 77.859375 48.24609375 77.859375 48.24609375 80.859375 C30.32414421 86.09759187 13.24788234 86.76507378 -3.75390625 77.859375 C-7.62674245 75.42092258 -11.21594757 72.75971114 -14.75390625 69.859375 C-15.36621094 69.36179687 -15.97851562 68.86421875 -16.609375 68.3515625 C-33.42306609 53.09543424 -42.69639324 28.55019578 -52.1015625 8.48413086 C-53.96735777 4.51325351 -55.84262292 0.61245803 -58.06640625 -3.171875 C-59.75390625 -6.140625 -59.75390625 -6.140625 -59.75390625 -8.140625 C-38.92906654 -14.80289767 -17.79931123 -13.83549298 0 0 Z " fill="#2C6836" transform="translate(2134.75390625,109.140625)"/>
<path d="M0 0 C3 1 3 1 4.71875 3.9921875 C5.32707099 5.27967405 5.91996298 6.57452581 6.5 7.875 C6.96128296 8.90427612 6.96128296 8.90427612 7.43188477 9.9543457 C13.94047297 24.79864644 16.00526387 41.48272429 10.32421875 57.05078125 C1.51968717 76.65969376 -14.51322311 92.66783955 -31.24609375 105.82421875 C-34.64954952 108.51319019 -37.95399934 111.30597803 -41.25 114.125 C-41.84868896 114.63619385 -42.44737793 115.1473877 -43.06420898 115.67407227 C-46.25441639 118.42145518 -49.31355714 121.22791089 -52.25 124.25 C-53.1575 125.1575 -54.065 126.065 -55 127 C-55.66 127 -56.32 127 -57 127 C-66.20188507 109.75938949 -71.92539112 92.50379474 -66.375 72.9375 C-62.82529716 63.21006872 -57.67434111 54.87159405 -51 47 C-50.34386719 46.22140625 -49.68773438 45.4428125 -49.01171875 44.640625 C-40.546372 34.92172599 -30.93377824 26.42954294 -20.90625 18.36328125 C-17.41315354 15.52279286 -13.98301868 12.61467891 -10.5625 9.6875 C-9.97090088 9.18347656 -9.37930176 8.67945313 -8.76977539 8.16015625 C-5.72316654 5.54715534 -2.79276578 2.88883144 0 0 Z " fill="#2B6735" transform="translate(2249,50)"/>
<path d="M0 0 C0.87537415 0.00359528 1.75074829 0.00719055 2.65264893 0.01089478 C4.02812141 0.01067574 4.02812141 0.01067574 5.43138123 0.01045227 C8.47773564 0.01115177 11.52402973 0.01894589 14.57037354 0.02676392 C16.67644721 0.02862796 18.78252132 0.03005193 20.88859558 0.03105164 C26.44364612 0.03487786 31.99867069 0.04470903 37.55371094 0.05575562 C43.21746469 0.0659675 48.88122262 0.07054878 54.54498291 0.07559204 C65.66673914 0.0863312 76.78847606 0.10340887 87.91021729 0.12442017 C88.90021729 2.10442017 88.90021729 2.10442017 89.91021729 4.12442017 C78.01951139 16.15518953 66.11176521 28.16879093 54.18334675 40.16216373 C48.64536544 45.731104 43.11314172 51.30554732 37.59405518 56.89321899 C32.78448715 61.76252644 27.96452065 66.6212511 23.13169163 71.46747679 C20.57225084 74.03475059 18.01838304 76.60707006 15.47689247 79.19212532 C12.64183256 82.07538612 9.78381372 84.93476697 6.92315674 87.79263306 C6.08086517 88.65649628 5.23857361 89.5203595 4.37075806 90.41040039 C3.58978256 91.1831279 2.80880707 91.95585541 2.00416565 92.7519989 C1.33033498 93.43136033 0.65650431 94.11072176 -0.03774548 94.8106699 C-2.08978271 96.12442017 -2.08978271 96.12442017 -4.84565449 95.8351965 C-5.5862168 95.60064031 -6.32677912 95.36608412 -7.08978271 95.12442017 C-7.11290438 82.88561687 -7.1306969 70.64681873 -7.14159489 58.40799809 C-7.1468241 52.72565505 -7.15392245 47.0433269 -7.16522217 41.36099243 C-7.17604968 35.88212881 -7.18205926 30.40327955 -7.18465996 24.92440605 C-7.18651445 22.82912406 -7.19013553 20.73384289 -7.19551277 18.63856697 C-7.20272139 15.71464433 -7.20377373 12.79078183 -7.20330811 9.86685181 C-7.20690338 8.99147766 -7.21049866 8.11610352 -7.21420288 7.21420288 C-7.20195957 0.15761509 -7.05658779 0.01224331 0 0 Z " fill="#D04576" transform="translate(776.0897827148438,137.87557983398438)"/>
<path d="M0 0 C1.05843613 0.00142502 2.11687225 0.00285004 3.2073822 0.00431824 C5.00418175 -0.00029671 5.00418175 -0.00029671 6.83728027 -0.00500488 C8.78573097 0.00577339 8.78573097 0.00577339 10.77354431 0.01676941 C12.1135046 0.01796116 13.45346572 0.01841438 14.79342651 0.01815796 C17.60203783 0.01972288 20.41052169 0.02801393 23.21910095 0.04142761 C26.82636726 0.05843389 30.43349363 0.0622415 34.04079533 0.06148243 C36.80736639 0.0617538 39.57390662 0.06722941 42.34046745 0.07448387 C44.31978861 0.07923043 46.29911626 0.08094855 48.27844238 0.0826416 C50.07051369 0.09221138 50.07051369 0.09221138 51.89878845 0.10197449 C52.95642899 0.10578629 54.01406952 0.10959808 55.10375977 0.11352539 C57.48838806 0.24723816 57.48838806 0.24723816 58.48838806 1.24723816 C58.58713976 2.92979051 58.6163771 4.61647844 58.61778259 6.30192566 C58.62093475 7.37974304 58.62408691 8.45756042 58.62733459 9.56803894 C58.62531036 10.74092468 58.62328613 11.91381042 58.62120056 13.12223816 C58.62215729 14.31703796 58.62311401 15.51183777 58.62409973 16.74284363 C58.62478177 19.27490796 58.62292584 21.80697403 58.61875916 24.33903503 C58.61341127 28.23035076 58.61870339 32.12155105 58.62510681 36.01286316 C58.62444603 38.46598842 58.62316488 40.9191136 58.62120056 43.37223816 C58.62322479 44.5451239 58.62524902 45.71800964 58.62733459 46.92643738 C58.62260635 48.54316345 58.62260635 48.54316345 58.61778259 50.19255066 C58.616987 51.14661804 58.61619141 52.10068542 58.6153717 53.08366394 C58.48838806 55.24723816 58.48838806 55.24723816 57.48838806 56.24723816 C55.62763847 56.35682639 53.76272349 56.39633763 51.89878845 56.40837097 C50.70407425 56.41797852 49.50936005 56.42758606 48.27844238 56.43748474 C46.32695534 56.44385956 46.32695534 56.44385956 44.33604431 56.45036316 C42.99704993 56.456112 41.65805559 56.46186976 40.31906128 56.46763611 C37.50871902 56.47815379 34.69840544 56.48399152 31.88804626 56.48747253 C28.28184058 56.49296128 24.67601172 56.51699359 21.06992435 56.54544449 C18.30331301 56.56404115 15.53679301 56.56927484 12.77012444 56.57080841 C10.79246538 56.57532 8.81485514 56.59398068 6.83728027 56.61277771 C5.63941391 56.60977661 4.44154755 56.60677551 3.2073822 56.60368347 C2.14894608 56.6073291 1.09050995 56.61097473 0 56.61473083 C-0.82883194 56.49345825 -1.65766388 56.37218567 -2.51161194 56.24723816 C-4.69008266 52.97953208 -4.7636617 52.04030109 -4.770401 48.25675964 C-4.77670532 47.24238327 -4.78300964 46.2280069 -4.789505 45.18289185 C-4.78545654 44.08908707 -4.78140808 42.99528229 -4.77723694 41.86833191 C-4.77915039 40.74532181 -4.78106384 39.62231171 -4.78303528 38.465271 C-4.78439681 36.09058915 -4.78070263 33.71589986 -4.77235413 31.3412323 C-4.76164444 27.69579963 -4.77225591 24.05085868 -4.78504944 20.40544128 C-4.78372803 18.10140373 -4.78116604 15.79736649 -4.77723694 13.49333191 C-4.7812854 12.3975029 -4.78533386 11.30167389 -4.789505 10.17263794 C-4.78320068 9.16141373 -4.77689636 8.15018951 -4.770401 7.10832214 C-4.76880981 6.21580246 -4.76721863 5.32328278 -4.76557922 4.40371704 C-4.37541559 1.0907721 -3.25201951 0.32012243 0 0 Z " fill="#0A0A0A" transform="translate(214.51161193847656,140.7527618408203)"/>
<path d="M0 0 C11.88 0 23.76 0 36 0 C36 14.19 36 28.38 36 43 C24.12 43 12.24 43 0 43 C0 28.81 0 14.62 0 0 Z " fill="#2B6735" transform="translate(1853,170)"/>
<path d="M0 0 C2.475 0.495 2.475 0.495 5 1 C5 100.33 5 199.66 5 302 C3.35 302.33 1.7 302.66 0 303 C0 203.01 0 103.02 0 0 Z " fill="#262626" transform="translate(980,122)"/>
<path d="M0 0 C0.33 0.99 0.66 1.98 1 3 C0.360625 3.4125 -0.27875 3.825 -0.9375 4.25 C-3.2618167 6.22214751 -3.43317629 7.11218234 -4 10 C-2.78884521 9.98428955 -2.78884521 9.98428955 -1.55322266 9.96826172 C2.08948682 9.92680169 5.73214675 9.90070562 9.375 9.875 C11.28152344 9.84986328 11.28152344 9.84986328 13.2265625 9.82421875 C14.43828125 9.81777344 15.65 9.81132812 16.8984375 9.8046875 C18.01911621 9.79421387 19.13979492 9.78374023 20.29443359 9.77294922 C23 10 23 10 25 12 C25.21758829 14.73898942 25.31141632 17.37988833 25.31884766 20.12158203 C25.32889328 20.96068115 25.3389389 21.79978027 25.34928894 22.66430664 C25.38024786 25.44546811 25.3971912 28.22653278 25.4140625 31.0078125 C25.43276394 32.93310385 25.45233657 34.85838691 25.4727478 36.78366089 C25.52418323 41.85694506 25.56374774 46.93025585 25.60089111 52.00366211 C25.6408594 57.17829023 25.69198438 62.35280659 25.7421875 67.52734375 C25.83908182 77.68481745 25.92344321 87.84235409 26 98 C23.55191766 94.23731324 23.70046522 90.46029594 23.69702148 86.1262207 C23.68858215 85.33720367 23.68014282 84.54818665 23.67144775 83.73526001 C23.6456945 81.13209422 23.63353765 78.52904166 23.62109375 75.92578125 C23.60492042 74.11784465 23.5877406 72.30991679 23.56959534 70.5019989 C23.52392347 65.7464094 23.48910479 60.99080832 23.45739746 56.23510742 C23.40549796 48.61193092 23.34054702 40.98888234 23.26918221 33.36586571 C23.24627928 30.69739808 23.23005613 28.02894695 23.21446228 25.36042786 C23.20106216 23.73548193 23.18744793 22.11053774 23.17358398 20.4855957 C23.17097061 19.73806534 23.16835724 18.99053497 23.16566467 18.22035217 C23.43165144 14.82237542 23.43165144 14.82237542 22 12 C20.00217874 11.84174742 17.99911166 11.74880829 15.99609375 11.68359375 C14.78115234 11.64169922 13.56621094 11.59980469 12.31445312 11.55664062 C11.03505859 11.51732422 9.75566406 11.47800781 8.4375 11.4375 C7.15423828 11.39431641 5.87097656 11.35113281 4.54882812 11.30664062 C1.36600147 11.200152 -1.81690674 11.09814038 -5 11 C-5.57592773 9.12011719 -5.57592773 9.12011719 -6 7 C-4.78515625 5.078125 -4.78515625 5.078125 -3.0625 3.25 C-2.49660156 2.63640625 -1.93070313 2.0228125 -1.34765625 1.390625 C-0.90292969 0.93171875 -0.45820312 0.4728125 0 0 Z " fill="#AFAFAF" transform="translate(790,240)"/>
<path d="M0 0 C0.33 0.99 0.66 1.98 1 3 C0.360625 3.4125 -0.27875 3.825 -0.9375 4.25 C-3.41464576 6.00723864 -3.41464576 6.00723864 -4 10 C4.91 10 13.82 10 23 10 C23 10.33 23 10.66 23 11 C13.76 11 4.52 11 -5 11 C-5.33 9.68 -5.66 8.36 -6 7 C-4.78515625 5.078125 -4.78515625 5.078125 -3.0625 3.25 C-2.49660156 2.63640625 -1.93070313 2.0228125 -1.34765625 1.390625 C-0.90292969 0.93171875 -0.45820312 0.4728125 0 0 Z " fill="#5F5F5F" transform="translate(790,240)"/>
<path d="M0 0 C0.66 0.33 1.32 0.66 2 1 C-1.72346836 5.42094803 -5.29521038 9.57833482 -10 13 C-10 10 -10 10 -7.8125 7.51953125 C-6.884375 6.62621094 -5.95625 5.73289063 -5 4.8125 C-4.071875 3.91144531 -3.14375 3.01039063 -2.1875 2.08203125 C-1.1046875 1.05142578 -1.1046875 1.05142578 0 0 Z " fill="#5D5D5D" transform="translate(611,216)"/>
<path d="M0 0 C0.66 0.33 1.32 0.66 2 1 C-2.62 5.62 -7.24 10.24 -12 15 C-12.66 14.67 -13.32 14.34 -14 14 C-9.61932717 8.89662734 -5.32423478 4.12628195 0 0 Z " fill="#598860" transform="translate(1210,235)"/>
<path d="M0 0 C0.33 0.99 0.66 1.98 1 3 C0.34 3.391875 -0.32 3.78375 -1 4.1875 C-3.29166667 5.85416667 -3.29166667 5.85416667 -3.25 8.6875 C-3.1675 9.450625 -3.085 10.21375 -3 11 C-3.66 11 -4.32 11 -5 11 C-5.68359375 9.234375 -5.68359375 9.234375 -6 7 C-4.78515625 5.078125 -4.78515625 5.078125 -3.0625 3.25 C-2.49660156 2.63640625 -1.93070313 2.0228125 -1.34765625 1.390625 C-0.90292969 0.93171875 -0.45820312 0.4728125 0 0 Z " fill="#7C7C7C" transform="translate(790,240)"/>
</svg>
