<?xml version="1.0" encoding="UTF-8"?>
<!DOCTYPE svg PUBLIC "-//W3C//DTD SVG 1.1//EN" "http://www.w3.org/Graphics/SVG/1.1/DTD/svg11.dtd">
<svg xmlns="http://www.w3.org/2000/svg" version="1.1" width="3840px" height="2160px" style="shape-rendering:geometricPrecision; text-rendering:geometricPrecision; image-rendering:optimizeQuality; fill-rule:evenodd; clip-rule:evenodd" xmlns:xlink="http://www.w3.org/1999/xlink">
<g><path style="opacity:0.998" fill="#256330" d="M 3839.5,649.5 C 3839.5,658.5 3839.5,667.5 3839.5,676.5C 3836.01,707.119 3825.85,735.452 3809,761.5C 3788.79,790.726 3765.29,817.226 3738.5,841C 3711.46,864.376 3684.13,887.376 3656.5,910C 3646.29,919.509 3636.46,929.342 3627,939.5C 3574.84,860.088 3577.17,782.421 3634,706.5C 3648.36,689.294 3663.53,672.794 3679.5,657C 3710.25,629.583 3741.58,602.917 3773.5,577C 3782.83,567.667 3792.17,558.333 3801.5,549C 3802.33,548.312 3803,548.479 3803.5,549.5C 3822.87,580.289 3834.87,613.622 3839.5,649.5 Z"/></g>
<g><path style="opacity:0.997" fill="#256330" d="M 3320.5,695.5 C 3370.8,691.647 3415.14,705.813 3453.5,738C 3479.25,761.732 3500.42,788.899 3517,819.5C 3538.48,861.465 3559.15,903.799 3579,946.5C 3584.66,957.164 3590.83,967.497 3597.5,977.5C 3508.45,1007.13 3434.62,985.794 3376,913.5C 3360.58,893.014 3346.92,871.348 3335,848.5C 3321.47,821.44 3308.47,794.107 3296,766.5C 3286.22,745.93 3275.72,725.93 3264.5,706.5C 3283.03,701.526 3301.7,697.86 3320.5,695.5 Z"/></g>
<g><path style="opacity:0.998" fill="#256330" d="M 3800.5,845.5 C 3829.51,886.855 3841.67,932.855 3837,983.5C 3831.61,1015.01 3819.61,1043.67 3801,1069.5C 3781.35,1095.49 3759.18,1119.33 3734.5,1141C 3710.17,1161.33 3685.83,1181.67 3661.5,1202C 3649.68,1212.65 3638.35,1223.82 3627.5,1235.5C 3626.68,1236.39 3625.68,1236.72 3624.5,1236.5C 3619.97,1227.11 3615.13,1217.77 3610,1208.5C 3576.96,1140.25 3582.29,1075.25 3626,1013.5C 3646.32,986.84 3669.15,962.34 3694.5,940C 3722.79,916.709 3750.79,893.042 3778.5,869C 3786.41,861.599 3793.74,853.765 3800.5,845.5 Z"/></g>
<g><path style="opacity:0.996" fill="#256330" d="M 2935.5,883.5 C 2979.83,883.5 3024.17,883.5 3068.5,883.5C 3068.5,918.5 3068.5,953.5 3068.5,988.5C 3022.17,988.333 2975.83,988.5 2929.5,989C 2924.05,991.718 2921.55,996.218 2922,1002.5C 2921.5,1036.17 2921.33,1069.83 2921.5,1103.5C 2961.83,1103.5 3002.17,1103.5 3042.5,1103.5C 3042.5,1136.17 3042.5,1168.83 3042.5,1201.5C 3002.17,1201.5 2961.83,1201.5 2921.5,1201.5C 2921.67,1332.17 2921.5,1462.83 2921,1593.5C 2920.59,1593.96 2920.09,1594.29 2919.5,1594.5C 2884.04,1594.29 2848.54,1593.96 2813,1593.5C 2812.5,1462.83 2812.33,1332.17 2812.5,1201.5C 2787.5,1201.67 2762.5,1201.5 2737.5,1201C 2736.84,1184.91 2736.5,1168.74 2736.5,1152.5C 2736.5,1136.26 2736.84,1120.09 2737.5,1104C 2762.5,1103.5 2787.5,1103.33 2812.5,1103.5C 2812.33,1069.83 2812.5,1036.17 2813,1002.5C 2813.52,977.547 2819.86,953.881 2832,931.5C 2849.27,907.263 2872.77,892.763 2902.5,888C 2913.59,886.096 2924.59,884.596 2935.5,883.5 Z"/></g>
<g><path style="opacity:0.997" fill="#256330" d="M 369.5,1197.5 C 371.498,1101.84 372.164,1005.84 371.5,909.5C 407.473,909.473 443.473,909.473 479.5,909.5C 480.5,1137.5 480.833,1365.5 480.5,1593.5C 444.98,1593.35 409.813,1593.68 375,1594.5C 373.667,1593.83 372.333,1593.17 371,1592.5C 370.5,1493.83 370.333,1395.17 370.5,1296.5C 283.167,1296.5 195.833,1296.5 108.5,1296.5C 108.667,1395.5 108.5,1494.5 108,1593.5C 72.031,1593.86 35.8643,1593.86 -0.5,1593.5C -0.5,1365.5 -0.5,1137.5 -0.5,909.5C 35.4734,909.473 71.4734,909.473 107.5,909.5C 108.333,1005.5 108.833,1101.5 109,1197.5C 195.785,1197.26 282.618,1197.26 369.5,1197.5 Z"/></g>
<g><path style="opacity:0.161" fill="#256431" d="M 371.5,909.5 C 372.164,1005.84 371.498,1101.84 369.5,1197.5C 370.164,1101.4 370.831,1005.4 371.5,909.5 Z"/></g>
<g><path style="opacity:0.998" fill="#256330" d="M 1382.5,908.5 C 1418.83,909.497 1455,909.83 1491,909.5C 1491.5,1007.17 1491.67,1104.83 1491.5,1202.5C 1494.25,1202.81 1496.91,1202.48 1499.5,1201.5C 1512.37,1154.16 1539.71,1118 1581.5,1093C 1615.12,1075.23 1650.79,1069.23 1688.5,1075C 1760.98,1086.81 1812.81,1125.97 1844,1192.5C 1862.09,1234.42 1870.92,1278.25 1870.5,1324C 1870.55,1373.48 1862.71,1421.64 1847,1468.5C 1834.01,1504.45 1814.18,1535.95 1787.5,1563C 1737.89,1606.98 1680.89,1620.32 1616.5,1603C 1568,1586.16 1533.16,1554.33 1512,1507.5C 1506.75,1494.84 1502.59,1481.84 1499.5,1468.5C 1496.91,1467.52 1494.25,1467.19 1491.5,1467.5C 1491.67,1509.5 1491.5,1551.5 1491,1593.5C 1454.63,1594.23 1418.13,1594.23 1381.5,1593.5C 1381.17,1365.1 1381.5,1136.76 1382.5,908.5 Z M 1627.5,1178.5 C 1658.94,1175.81 1686.11,1185.14 1709,1206.5C 1731.5,1230.49 1745.83,1258.83 1752,1291.5C 1763.14,1346.04 1756.14,1398.04 1731,1447.5C 1700.84,1498.11 1657.68,1514.61 1601.5,1497C 1580.2,1486.37 1563.37,1470.87 1551,1450.5C 1528.16,1407.63 1519.49,1361.97 1525,1313.5C 1528.46,1273.6 1543.13,1238.6 1569,1208.5C 1585.34,1192.25 1604.84,1182.25 1627.5,1178.5 Z"/></g>
<g><path style="opacity:0.997" fill="#256330" d="M 2200.5,1201.5 C 2200.17,1200.5 2199.5,1199.83 2198.5,1199.5C 2178.28,1184.02 2155.28,1176.68 2129.5,1177.5C 2101.76,1177.26 2076.43,1184.76 2053.5,1200C 2040.64,1210.03 2031.97,1222.86 2027.5,1238.5C 1989.86,1231.34 1952.2,1224.34 1914.5,1217.5C 1922.98,1168.53 1948.32,1131.03 1990.5,1105C 2024.83,1085.78 2061.67,1074.61 2101,1071.5C 2142.92,1067.79 2183.76,1073.29 2223.5,1088C 2284.69,1113.89 2318.19,1160.05 2324,1226.5C 2324.01,1310.88 2324.68,1395.21 2326,1479.5C 2329.56,1487.79 2335.9,1492.12 2345,1492.5C 2369.67,1491.17 2394.33,1491.17 2419,1492.5C 2419.5,1298.5 2419.67,1104.5 2419.5,910.5C 2456.07,910.17 2492.57,910.504 2529,911.5C 2529.67,1139.17 2529.67,1366.83 2529,1594.5C 2468.52,1595.78 2408.18,1595.78 2348,1594.5C 2300.47,1590.63 2274.47,1564.97 2270,1517.5C 2268.71,1503.53 2268.21,1489.53 2268.5,1475.5C 2265.5,1475.5 2262.5,1475.5 2259.5,1475.5C 2243.42,1531.41 2208.75,1570.91 2155.5,1594C 2123.58,1606.28 2090.58,1610.61 2056.5,1607C 2021.09,1604.97 1987.76,1595.64 1956.5,1579C 1910.33,1550.02 1887.33,1508.02 1887.5,1453C 1887.93,1404.46 1908.27,1366.79 1948.5,1340C 1979.5,1321.33 2012.83,1308.33 2048.5,1301C 2103.66,1291.31 2158.99,1282.81 2214.5,1275.5C 2214.91,1258.46 2214.41,1241.46 2213,1224.5C 2210.9,1215.63 2206.74,1207.97 2200.5,1201.5 Z M 2206.5,1368.5 C 2208.83,1368.5 2211.17,1368.5 2213.5,1368.5C 2216.75,1425.55 2192.41,1465.39 2140.5,1488C 2108.14,1500.78 2075.14,1502.78 2041.5,1494C 2030.01,1490.34 2019.84,1484.51 2011,1476.5C 1999.9,1462.59 1997.57,1447.26 2004,1430.5C 2009.34,1418.16 2017.84,1408.66 2029.5,1402C 2050.54,1391.21 2072.87,1384.88 2096.5,1383C 2133.34,1378.35 2170.01,1373.52 2206.5,1368.5 Z"/></g>
<g><path style="opacity:0.997" fill="#256331" d="M 2582.5,918.5 C 2619.17,918.5 2655.83,918.5 2692.5,918.5C 2692.5,961.833 2692.5,1005.17 2692.5,1048.5C 2655.83,1048.5 2619.17,1048.5 2582.5,1048.5C 2582.5,1005.17 2582.5,961.833 2582.5,918.5 Z"/></g>
<g><path style="opacity:0.998" fill="#256330" d="M 734.5,1073.5 C 828.812,1070.22 899.312,1109.22 946,1190.5C 969.081,1233.68 981.914,1279.51 984.5,1328C 986.25,1345.74 986.75,1363.57 986,1381.5C 867.57,1382.5 749.07,1382.83 630.5,1382.5C 629.84,1413.35 638.674,1441.02 657,1465.5C 678.549,1488.14 705.049,1500.64 736.5,1503C 763.02,1505.93 788.687,1502.59 813.5,1493C 834.777,1483.72 850.944,1468.89 862,1448.5C 895.391,1458.85 928.891,1469.02 962.5,1479C 964.286,1479.2 965.619,1480.03 966.5,1481.5C 935.744,1544.41 886.41,1584.91 818.5,1603C 750.955,1619.69 687.621,1610.02 628.5,1574C 574.651,1535.84 539.485,1484.68 523,1420.5C 504.313,1347.94 509.646,1277.28 539,1208.5C 579.012,1127.23 644.179,1082.23 734.5,1073.5 Z M 734.5,1180.5 C 771.419,1176.47 804.419,1185.64 833.5,1208C 857.988,1231.28 870.321,1259.62 870.5,1293C 790.501,1293.5 710.501,1293.67 630.5,1293.5C 632.286,1237.39 659.953,1201.22 713.5,1185C 720.621,1183.41 727.621,1181.91 734.5,1180.5 Z"/></g>
<g><path style="opacity:0.998" fill="#256330" d="M 3271.5,1073.5 C 3366.47,1070.09 3437.31,1109.42 3484,1191.5C 3514.27,1251.16 3527.27,1314.49 3523,1381.5C 3404.57,1382.5 3286.07,1382.83 3167.5,1382.5C 3170.52,1462.18 3212.19,1502.52 3292.5,1503.5C 3330.22,1505.21 3362.05,1492.55 3388,1465.5C 3392.25,1460.01 3396.25,1454.34 3400,1448.5C 3434.84,1459.25 3469.67,1470.09 3504.5,1481C 3470.65,1548.48 3416.65,1590.15 3342.5,1606C 3257.8,1621.76 3184.96,1599.26 3124,1538.5C 3077.21,1484.87 3052.55,1422.2 3050,1350.5C 3046.88,1289.99 3060.54,1233.66 3091,1181.5C 3133.43,1116.3 3193.6,1080.3 3271.5,1073.5 Z M 3272.5,1180.5 C 3308.57,1176.43 3340.9,1185.26 3369.5,1207C 3395.03,1230.07 3407.7,1258.9 3407.5,1293.5C 3327.5,1293.5 3247.5,1293.5 3167.5,1293.5C 3169.8,1237.73 3197.47,1201.56 3250.5,1185C 3257.95,1183.37 3265.28,1181.87 3272.5,1180.5 Z"/></g>
<g><path style="opacity:0.999" fill="#256331" d="M 1267.5,1100.5 C 1289.96,1100.53 1312.63,1100.53 1335.5,1100.5C 1336.12,1135.9 1336.12,1171.24 1335.5,1206.5C 1306.17,1207.33 1276.84,1207.83 1247.5,1208C 1220.24,1210.88 1197.41,1222.38 1179,1242.5C 1155.07,1271.58 1140.4,1304.91 1135,1342.5C 1133.78,1351.14 1132.78,1359.81 1132,1368.5C 1131.83,1443.74 1131.33,1518.9 1130.5,1594C 1094.43,1594.23 1058.27,1594.06 1022,1593.5C 1021.17,1432.83 1021.33,1272.17 1022.5,1111.5C 1058.4,1110.97 1094.24,1110.64 1130,1110.5C 1131.49,1145.35 1131.99,1180.35 1131.5,1215.5C 1134.5,1215.5 1137.5,1215.5 1140.5,1215.5C 1155.21,1176.95 1179.21,1145.45 1212.5,1121C 1229.34,1109.89 1247.68,1103.06 1267.5,1100.5 Z"/></g>
<g><path style="opacity:1" fill="#256331" d="M 2584.5,1110.5 C 2620.38,1111.07 2656.21,1111.4 2692,1111.5C 2692.83,1272.17 2692.67,1432.83 2691.5,1593.5C 2690.83,1593.83 2690.17,1594.17 2689.5,1594.5C 2654.04,1594.29 2618.54,1593.96 2583,1593.5C 2582.83,1513.17 2582.67,1432.83 2582.5,1352.5C 2582.5,1271.62 2583.17,1190.96 2584.5,1110.5 Z"/></g>
<g><path style="opacity:0.161" fill="#256431" d="M 2198.5,1199.5 C 2199.5,1199.83 2200.17,1200.5 2200.5,1201.5C 2199.17,1201.5 2198.5,1200.83 2198.5,1199.5 Z"/></g>
</svg>
